<?xml version="1.0" encoding="utf-8"?>
<!-- Generator: Adobe Illustrator 16.0.0, SVG Export Plug-In . SVG Version: 6.00 Build 0)  -->
<!DOCTYPE svg PUBLIC "-//W3C//DTD SVG 1.1//EN" "http://www.w3.org/Graphics/SVG/1.1/DTD/svg11.dtd">
<svg version="1.1" id="图层_1" xmlns="http://www.w3.org/2000/svg" xmlns:xlink="http://www.w3.org/1999/xlink" x="0px" y="0px"
	 width="162.3px" height="151.7px" viewBox="0 0 162.3 151.7" enable-background="new 0 0 162.3 151.7" xml:space="preserve">
<g>
	<path fill-rule="evenodd" clip-rule="evenodd" fill="#FFFFF0" d="M42.027,104.281l5.607-2.525c0,0,4.494-10.422,19.658-22.111
		c0,0,10.971-8.529,3.79-17.609c0,0-0.794-1.491,0.471-2.36c1.261-0.875,6.238,1.651,6.321,7.815
		c0.078,6.151-3.168,7.889-3.168,7.889s9.795,6.396,9.721,19.109c-0.078,12.711-8.691,19.334-8.691,19.334l-0.547-0.225
		c0,0,6.371-10.381,4.259-21.563c-1.819-9.627-8.367-11.992-8.367-11.992s-11.85,7.498-19.745,22.576l-0.471,1.104
		c0,0-0.708,1.262-2.602,1.658L41,105.779l0.078-1.186L42.027,104.281z"/>
	<path fill-rule="evenodd" clip-rule="evenodd" fill="#FFFFF0" d="M62.956,15.646c-44.94,21.205-36.243,65.26-36.243,65.26
		l-4.741,9.721c-1.024,2.918-0.394,4.494-0.394,4.494l3.714,10.336l1.658,1.115l5.447-0.322l0.78-1.969l-1.807-0.471
		c-0.952,0-1.422-0.633-1.422-0.633l-5.686-9.559l0.076-1.508l0.708-1.26C36.738,75.46,35.627,61.96,35.627,61.96l10.818-9.236
		c-3.156-21.554,9.237-26.218,9.237-26.218c-4.73,7.971-2.762,15.002-2.762,15.002c10.818-13.742,25.82-14.683,25.82-14.683
		c-4.108,4.419-5.927,10.661-5.927,10.661c14.928-2.762,22.344-15.785,22.344-15.785c0.875,8.442-3.703,14.283-3.703,14.283
		c15.08-5.049,25.268-13.815,25.268-13.815l0.867,0.312c-3.717,8.689-14.609,17.69-14.609,17.69
		c19.658,6.237,37.742-5.128,37.742-5.128c-2.922,9.386-15.162,15.229-15.162,15.229c11.129,7.269,33.162,5.053,33.162,5.053
		c-3.318,5.927-16.82,9.8-16.82,9.8c8.684,5.518,8.764,13.89,8.764,13.89c-8.135-4.033-15.258-4.298-15.258-4.298
		c2.434,79.653-114.576,80.63-122.333,12.063C5.312,18.231,69.347,0.929,69.347,0.929L69.384,0
		C7.458,14.513,0.996,67.236,0.996,67.236c-4.167,29.854,4.333,50.23,23.755,67.676c4.128,3.254,12.573,9.445,24.267,12.971
		c0.161,0.047,0.311,0.104,0.483,0.15c2.354,0.693,4.842,1.283,7.452,1.762c6.201,1.197,13.271,1.975,21.364,1.98
		c9.987-0.311,21.157-2.193,33.163-6.918c51.643-24.123,50.805-70.065,50.805-70.065C164.338,22.98,107.9-5.553,62.956,15.646z"/>
	<path fill-rule="evenodd" clip-rule="evenodd" fill="#FFFFF0" d="M13.075,86.781C5.312,18.231,69.347,0.929,69.347,0.929L69.384,0
		C7.458,14.513,0.996,67.236,0.996,67.236c-4.167,29.854,4.333,50.23,23.755,67.676c4.128,3.254,12.573,9.445,24.267,12.971
		c0.161,0.047,0.311,0.104,0.483,0.15c2.354,0.693,4.842,1.283,7.452,1.762c6.201,1.197,13.271,1.975,21.364,1.98
		c9.987-0.311,21.157-2.193,33.163-6.918c2.803-1.307,5.373-2.705,7.859-4.127c24.955-21.889,18.313-56.031,16.049-64.804
		C136.574,154.348,20.795,154.99,13.075,86.781z"/>
</g>
</svg>
