<?xml version="1.0" encoding="utf-8"?>
<!-- Generator: Adobe Illustrator 16.0.0, SVG Export Plug-In . SVG Version: 6.00 Build 0)  -->
<!DOCTYPE svg PUBLIC "-//W3C//DTD SVG 1.1//EN" "http://www.w3.org/Graphics/SVG/1.1/DTD/svg11.dtd">
<svg version="1.1" id="图层_1" xmlns="http://www.w3.org/2000/svg" xmlns:xlink="http://www.w3.org/1999/xlink" x="0px" y="0px"
	 width="295px" height="257px" viewBox="0 0 295 257" enable-background="new 0 0 295 257" xml:space="preserve">
<g>
	<g>
		<g>
			<path fill-rule="evenodd" clip-rule="evenodd" fill="#FFFFFF" d="M100.095,104.282l5.607-2.526c0,0,4.494-10.422,19.658-22.111
				c0,0,10.971-8.53,3.79-17.61c0,0-0.794-1.491,0.471-2.36c1.261-0.875,6.238,1.651,6.321,7.815
				c0.078,6.151-3.168,7.889-3.168,7.889s9.795,6.397,9.72,19.108c-0.078,12.712-8.69,19.335-8.69,19.335l-0.547-0.225
				c0,0,6.371-10.381,4.259-21.563c-1.819-9.627-8.367-11.992-8.367-11.992s-11.85,7.498-19.745,22.575l-0.471,1.104
				c0,0-0.708,1.26-2.602,1.658l-7.265,0.397l0.078-1.185L100.095,104.282z"/>
			<path fill-rule="evenodd" clip-rule="evenodd" fill="#FFFFFF" d="M121.023,15.646C76.083,36.852,84.78,80.907,84.78,80.907
				l-4.741,9.719c-1.024,2.918-0.394,4.495-0.394,4.495l3.714,10.335l1.658,1.116l5.447-0.322l0.78-1.968l-1.807-0.471
				c-0.952,0-1.422-0.633-1.422-0.633l-5.686-9.559l0.076-1.508l0.708-1.26C94.805,75.46,93.695,61.96,93.695,61.96l10.818-9.236
				c-3.156-21.554,9.237-26.218,9.237-26.218c-4.73,7.971-2.762,15.002-2.762,15.002c10.818-13.742,25.82-14.683,25.82-14.683
				c-4.108,4.419-5.927,10.661-5.927,10.661c14.927-2.762,22.343-15.785,22.343-15.785c0.875,8.442-3.703,14.283-3.703,14.283
				c15.08-5.049,25.268-13.815,25.268-13.815l0.867,0.312c-3.716,8.689-14.608,17.69-14.608,17.69
				c19.657,6.237,37.742-5.128,37.742-5.128c-2.922,9.386-15.163,15.229-15.163,15.229c11.13,7.269,33.162,5.053,33.162,5.053
				c-3.317,5.927-16.819,9.8-16.819,9.8c8.684,5.518,8.763,13.891,8.763,13.891c-8.135-4.034-15.257-4.299-15.257-4.299
				c2.434,79.653-114.576,80.631-122.333,12.064c-7.763-68.551,56.272-85.853,56.272-85.853L127.452,0
				C65.526,14.513,59.063,67.236,59.063,67.236c-4.167,29.854,4.333,50.23,23.755,67.677c4.128,3.254,12.573,9.444,24.267,12.971
				c0.161,0.047,0.311,0.104,0.483,0.15c2.354,0.692,4.842,1.282,7.452,1.761c6.201,1.198,13.271,1.975,21.364,1.98
				c9.987-0.311,21.157-2.193,33.162-6.917c51.643-24.124,50.805-70.066,50.805-70.066C222.405,22.98,165.967-5.553,121.023,15.646z
				"/>
			<path fill-rule="evenodd" clip-rule="evenodd" fill="#FFFFFF" d="M71.142,86.782c-7.763-68.551,56.272-85.853,56.272-85.853
				L127.452,0C65.526,14.513,59.063,67.236,59.063,67.236c-4.167,29.854,4.333,50.23,23.755,67.677
				c4.128,3.254,12.573,9.444,24.267,12.971c0.161,0.047,0.311,0.104,0.483,0.15c2.354,0.692,4.842,1.282,7.452,1.761
				c6.201,1.198,13.271,1.975,21.364,1.98c9.987-0.311,21.157-2.193,33.162-6.917c2.804-1.308,5.373-2.705,7.859-4.127
				c24.956-21.889,18.313-56.032,16.05-64.805C194.641,154.349,78.862,154.991,71.142,86.782z"/>
		</g>
		<path fill="#FFFFFF" d="M253.359,197.168h30.051v10.889h7.739v-17.23h-45.523v18.075h7.733V197.168z M29.948,211.708
			c1.588,2.741,3.055,5.636,4.425,8.669l6.958-2.642c-1.289-2.762-2.871-5.577-4.759-8.464L29.948,211.708z M283.028,187.125
			c4.698,0,5.636-2.79,5.786-4.443v-1.091c0-0.053-0.007-0.082-0.007-0.082l0.007,0.006v-11.262h-41.043v16.927H281.5
			C281.955,187.145,282.449,187.125,283.028,187.125z M280.873,180.895h-25.131v-4.347h25.131V180.895z M172.507,181.963
			l0.033,0.006v-11.348h-28.789v17.774h22.41C173.261,188.3,172.507,181.963,172.507,181.963z M165.188,182.249h-14.087v-5.487
			h14.087V182.249z M16.971,211.812c1.364,2.822,2.625,5.744,3.81,8.77l7.021-2.208c-1.082-2.513-2.474-5.454-4.201-8.833
			L16.971,211.812z M271.642,205.413c0.754-1.857,1.248-3.861,1.495-6.029h-7.945c-0.271,8.143-8.148,14.017-24.117,14.467
			c1.547,2.768,2.704,4.896,3.671,6.951c10.872-1.382,18.621-4.616,23.283-9.71c8.66,3.401,16.178,6.618,22.513,9.659l4.252-6.769
			C287.679,211.117,279.974,208.275,271.642,205.413z M232.027,189.601v-6.503h-35.903v6.3h7.521l-3.822,3.499
			c2.724,1.468,5.509,3.146,8.311,5.002H194.08v6.301h16.35v5.807c0.04,2.439-1.041,3.667-3.257,3.667
			c-1.116,0-3.705-0.1-7.732-0.282c0.627,2.041,1.126,4.263,1.529,6.618h10.428c0.466-0.041,0.885-0.082,1.203-0.127
			c1.667-0.23,3.039-0.938,4.091-2.094c1.047-1.164,1.575-2.879,1.575-5.129v-8.46h8.909l-3.378,6.716l6.796,1.797l4.379-8.938
			v-5.876h-15.479L232.027,189.601z M213.771,194.497l-7.899-5.1h15.838L213.771,194.497z M161.924,208.481h10.934v-5.922h-10.934
			v-4.374h12.436v-6.145h-31.811v6.145h11.821v4.374h-10.837v5.922h10.837v4.534h-14.583v6.152h35.898v-6.152h-13.761V208.481z
			 M213.596,169.286l-9.595-0.033c0.364,0.789,1.18,2.78,1.705,4.068h-20.36v18.143c0.081,10.951-1.45,19.025-4.574,24.205
			l6.23,5.082c3.766-5.665,5.646-15.102,5.646-28.344v-12.573h42.325v-6.513h-19.46L213.596,169.286z M106.577,170.621H65.92v6.604
			h31.323l-1.41,13.07H77.079l1.214-10.736H69.62l-1.773,17.296h36.738c-0.195,7.673-0.432,11.886-0.766,12.649
			c-0.345,0.737-0.84,1.393-1.519,1.946c-0.529,0.45-1.422,0.707-2.613,0.793v0.025h-0.513c-0.137,0.002-0.252,0.01-0.39,0.01
			c-0.53,0-1.18-0.008-1.889-0.01h-18.19v7.37h22.195v0.018c0.243-0.014,0.466-0.018,0.645-0.023
			c3.216-0.098,5.795-0.922,7.711-2.452c1.91-1.513,2.998-3.818,3.257-6.895c0.252-3.096,0.494-9.759,0.741-19.991h-8.753
			L106.577,170.621z M101.058,200.914H61.392v6.87h39.666V200.914z M32.048,199.924h20.538v-5.61H32.048v-2.85h13.19
			c0.356-0.051,0.771-0.08,1.341-0.08c6.25,0,5.489-4.979,5.489-4.979h0.041v-15.893H5.197v20.951h20.003v2.85H4.207v5.61h20.994
			v3.268H1.33v5.595h6.44c-1.911,3.372-3.891,6.356-5.876,8.949l6.566,3.396c2.025-2.9,4.005-6.113,5.91-9.636l-6.468-2.709h41.306
			l-6.059,2.709c2.187,3.242,4.075,6.342,5.697,9.307l6.502-3.287c-1.623-2.865-3.528-5.775-5.668-8.729h5.904v-5.595H32.048
			V199.924z M32.048,176.02h6.428c-1.594,2.11-3.367,4.171-5.317,6.187l4.857,3.63c2.1-2.021,4.091-4.09,5.968-6.164l-5.277-3.652
			h6.042v9.934H32.048V176.02z M25.201,185.953H12.546v-9.934h5.248l-4.419,3.165c1.842,1.909,3.655,4.08,5.403,6.513
			c1.744-1.374,3.517-2.674,5.318-3.859c-1.739-2.004-3.609-3.949-5.641-5.818h6.745V185.953z M137.069,194.63l-1.547,1.478v-5.812
			h6.296v-6.29h-6.296v-6.634c2.251-0.306,4.482-0.651,6.739-1.029l-1.71-6.618c-7.303,1.195-13.851,1.934-19.675,2.215
			c0.415,1.852,0.748,4.092,0.995,6.768c2.199-0.12,4.385-0.312,6.578-0.515v5.813h-7.354v6.29h6.307
			c-1.997,5.154-4.19,9.352-6.63,12.575c1.065,2.894,1.951,5.856,2.647,8.878c1.986-3.591,3.667-7.371,5.03-11.332v20.385h7.072
			v-19.716c1.231,1.329,2.51,2.787,3.815,4.327l4.909-4.54C141.306,198.193,138.906,196.107,137.069,194.63z"/>
		<g>
			<g>
				<g>
					<path fill="#FFFFFF" d="M84.139,234.03v-3.591h3.668v3.591H84.139z M84.139,256.263v-18.698h3.668v18.698H84.139z"/>
					<path fill="#FFFFFF" d="M100.522,253.412l0.472,2.798c-1.035,0.191-1.951,0.282-2.768,0.282c-1.335,0-2.369-0.181-3.093-0.536
						c-0.74-0.366-1.251-0.85-1.548-1.438c-0.308-0.595-0.449-1.84-0.449-3.732v-10.739H90.42v-2.481h2.716v-4.634l3.664-1.9v6.534
						h3.722v2.481H96.8v10.922c0,0.896,0.065,1.468,0.189,1.726c0.132,0.269,0.345,0.464,0.647,0.628
						c0.292,0.147,0.717,0.224,1.264,0.224C99.303,253.545,99.855,253.502,100.522,253.412z"/>
					<path fill="#FFFFFF" d="M103.195,256.263v-25.823h3.658v9.283c1.712-1.714,3.846-2.56,6.45-2.56
						c1.604,0,2.982,0.269,4.156,0.816c1.18,0.546,2.017,1.3,2.529,2.25c0.512,0.975,0.759,2.353,0.759,4.196v11.837h-3.656v-11.845
						c0-1.583-0.409-2.742-1.188-3.452c-0.789-0.725-1.908-1.082-3.348-1.082c-1.086,0-2.105,0.238-3.055,0.726
						c-0.947,0.489-1.628,1.146-2.042,1.973c-0.4,0.842-0.604,1.992-0.604,3.46v10.221H103.195z"/>
					<path fill="#FFFFFF" d="M140.262,250.243l3.778,0.401c-0.605,1.912-1.704,3.39-3.312,4.438
						c-1.614,1.059-3.663,1.587-6.172,1.587c-3.15,0-5.648-0.836-7.495-2.522c-1.848-1.687-2.774-4.045-2.774-7.07
						c0-3.154,0.936-5.589,2.806-7.32c1.858-1.736,4.281-2.594,7.256-2.594c2.892,0,5.236,0.838,7.066,2.542
						c1.818,1.682,2.733,4.074,2.733,7.151c0,0.191-0.006,0.464-0.023,0.839h-16.062c0.132,2.063,0.812,3.628,2.015,4.713
						c1.217,1.121,2.713,1.649,4.512,1.649c1.341,0,2.475-0.302,3.43-0.906C138.963,252.537,139.711,251.576,140.262,250.243z
						 M128.242,245.093h12.065c-0.159-1.554-0.623-2.729-1.379-3.515c-1.162-1.209-2.681-1.81-4.54-1.81
						c-1.669,0-3.082,0.479-4.242,1.451C129.002,242.179,128.37,243.477,128.242,245.093z"/>
					<path fill="#FFFFFF" d="M147.809,234.03v-3.591h3.668v3.591H147.809z M147.809,256.263v-18.698h3.668v18.698H147.809z"/>
					<path fill="#FFFFFF" d="M156.16,256.263v-18.698h3.262v2.608c0.685-0.899,1.575-1.624,2.71-2.188
						c1.125-0.554,2.412-0.822,3.853-0.822c1.593,0,2.907,0.278,3.937,0.846c1.023,0.579,1.748,1.368,2.178,2.401
						c1.713-2.164,3.941-3.247,6.701-3.247c2.146,0,3.798,0.507,4.961,1.536c1.152,1.033,1.729,2.602,1.729,4.742v12.821h-3.665
						v-11.786c0-1.263-0.124-2.18-0.36-2.736c-0.232-0.552-0.657-1.004-1.285-1.348c-0.634-0.347-1.358-0.509-2.212-0.509
						c-1.521,0-2.789,0.433-3.804,1.313c-1,0.869-1.5,2.276-1.5,4.194v10.872h-3.673v-12.158c0-1.411-0.289-2.468-0.886-3.168
						c-0.598-0.707-1.576-1.053-2.924-1.053c-1.032,0-1.984,0.23-2.865,0.702c-0.861,0.472-1.496,1.154-1.892,2.055
						c-0.394,0.908-0.593,2.212-0.593,3.912v9.71H156.16z"/>
					<path fill="#FFFFFF" d="M204.055,253.944c-1.332,0.996-2.634,1.712-3.887,2.115c-1.261,0.405-2.611,0.61-4.061,0.61
						c-2.377,0-4.224-0.503-5.508-1.509c-1.269-0.994-1.904-2.279-1.904-3.846c0-0.903,0.23-1.731,0.714-2.495
						c0.486-0.759,1.121-1.371,1.91-1.817c0.777-0.464,1.665-0.811,2.638-1.049c0.729-0.155,1.805-0.313,3.279-0.472
						c2.971-0.296,5.158-0.669,6.564-1.082c0.012-0.442,0.022-0.709,0.022-0.826c0-1.299-0.35-2.217-1.062-2.733
						c-0.932-0.727-2.336-1.072-4.197-1.072c-1.736,0-3.023,0.252-3.848,0.772c-0.831,0.522-1.438,1.433-1.834,2.75l-3.544-0.401
						c0.32-1.325,0.858-2.39,1.607-3.198c0.734-0.812,1.813-1.441,3.226-1.874c1.407-0.444,3.04-0.654,4.898-0.654
						c1.85,0,3.343,0.183,4.495,0.552c1.147,0.372,2.002,0.855,2.537,1.423c0.538,0.567,0.927,1.278,1.141,2.13
						c0.13,0.544,0.186,1.517,0.186,2.929v4.22c0,2.931,0.077,4.804,0.222,5.589c0.141,0.786,0.459,1.536,0.896,2.258h-3.778
						C204.394,255.611,204.157,254.828,204.055,253.944z M203.767,246.884c-1.341,0.474-3.352,0.864-6.022,1.191
						c-1.496,0.193-2.575,0.411-3.198,0.63c-0.625,0.231-1.108,0.581-1.454,1.037c-0.34,0.44-0.501,0.943-0.501,1.487
						c0,0.846,0.368,1.546,1.115,2.109c0.739,0.555,1.829,0.844,3.272,0.844c1.416,0,2.685-0.275,3.786-0.805
						c1.103-0.54,1.911-1.258,2.444-2.197c0.392-0.704,0.592-1.747,0.592-3.143L203.767,246.884z"/>
					<path fill="#FFFFFF" d="M236.995,249.434l3.601,0.406c-0.396,2.132-1.393,3.811-3.008,5.012
						c-1.617,1.21-3.597,1.818-5.945,1.818c-2.942,0-5.318-0.832-7.104-2.503c-1.79-1.681-2.682-4.064-2.682-7.18
						c0-2.025,0.384-3.773,1.151-5.29c0.778-1.521,1.945-2.647,3.505-3.4c1.583-0.762,3.3-1.134,5.14-1.134
						c2.338,0,4.246,0.513,5.732,1.552c1.493,1.042,2.447,2.511,2.855,4.409l-3.547,0.403c-0.333-1.252-0.926-2.197-1.778-2.814
						c-0.857-0.634-1.893-0.944-3.097-0.944c-1.835,0-3.323,0.563-4.47,1.706c-1.134,1.143-1.704,2.951-1.704,5.423
						c0,2.501,0.552,4.322,1.651,5.463c1.105,1.138,2.542,1.697,4.301,1.697c1.436,0,2.624-0.37,3.572-1.135
						C236.136,252.167,236.735,251.009,236.995,249.434z"/>
					<path fill="#FFFFFF" d="M241.502,246.917c0-3.46,1.108-6.016,3.342-7.679c1.847-1.382,4.113-2.075,6.778-2.075
						c2.974,0,5.398,0.83,7.274,2.526c1.883,1.668,2.826,4.002,2.826,6.959c0,2.405-0.411,4.298-1.238,5.677
						c-0.846,1.364-2.047,2.44-3.642,3.204c-1.598,0.755-3.334,1.141-5.221,1.141c-3.022,0-5.456-0.836-7.32-2.513
						C242.438,252.473,241.502,250.065,241.502,246.917z M245.286,246.907c0,2.385,0.604,4.188,1.808,5.379
						c1.204,1.188,2.723,1.771,4.528,1.771c1.816,0,3.326-0.589,4.524-1.785c1.195-1.197,1.799-3.025,1.799-5.478
						c0-2.305-0.615-4.061-1.813-5.248c-1.207-1.189-2.713-1.778-4.511-1.778c-1.806,0-3.324,0.589-4.528,1.769
						C245.89,242.721,245.286,244.516,245.286,246.907z"/>
					<path fill="#FFFFFF" d="M265.163,256.263v-18.698h3.253v2.608c0.677-0.899,1.583-1.624,2.706-2.188
						c1.128-0.554,2.419-0.822,3.847-0.822c1.607,0,2.922,0.278,3.939,0.846c1.036,0.579,1.767,1.368,2.18,2.401
						c1.713-2.164,3.944-3.247,6.698-3.247c2.144,0,3.8,0.507,4.97,1.536c1.143,1.033,1.731,2.602,1.731,4.742v12.821h-3.667
						v-11.786c0-1.263-0.111-2.18-0.368-2.736c-0.234-0.552-0.659-1.004-1.282-1.348c-0.627-0.347-1.367-0.509-2.207-0.509
						c-1.531,0-2.796,0.433-3.795,1.313c-1.008,0.869-1.517,2.276-1.517,4.194v10.872h-3.656v-12.158
						c0-1.411-0.305-2.468-0.896-3.168c-0.601-0.707-1.575-1.053-2.932-1.053c-1.031,0-1.972,0.23-2.843,0.702
						c-0.888,0.472-1.504,1.154-1.911,2.055c-0.39,0.908-0.592,2.212-0.592,3.912v9.71H265.163z"/>
				</g>
				<g>
					<path fill="#FFFFFF" d="M5.371,256.308l-5.14-18.899h3.165l3.552,12.385l3.3-12.385h3.138l3.212,12.385l3.608-12.385h3.234
						l-5.219,18.899h-3.123l-3.303-13.168l-3.257,13.168H5.371z"/>
					<path fill="#FFFFFF" d="M29.735,256.308l-5.136-18.899h3.166l3.55,12.385l3.301-12.385h3.139l3.215,12.385l3.607-12.385h3.229
						l-5.22,18.899h-3.118l-3.306-13.168l-3.257,13.168H29.735z"/>
					<path fill="#FFFFFF" d="M54.106,256.308l-5.14-18.899h3.165l3.552,12.385l3.302-12.385h3.137l3.211,12.385l3.611-12.385h2.975
						L66.7,256.308h-2.866l-3.3-13.168l-3.26,13.168H54.106z"/>
				</g>
			</g>
			<rect x="74.811" y="252.629" fill="#FFFFFF" width="3.671" height="3.593"/>
			<rect x="213.497" y="252.882" fill="#FFFFFF" width="3.67" height="3.589"/>
		</g>
	</g>
	<g>
		<g>
			<path fill="#FFFFFF" d="M241.595,149.318v-14.341h-5.356v-1.92h12.89v1.92h-5.382v14.341H241.595z"/>
			<path fill="#FFFFFF" d="M251.268,149.318v-16.261h3.239l3.851,11.515c0.355,1.072,0.614,1.875,0.777,2.407
				c0.184-0.593,0.473-1.46,0.865-2.608l3.892-11.313h2.896v16.261h-2.075V135.71l-4.726,13.608h-1.939l-4.704-13.844v13.844
				H251.268z"/>
		</g>
	</g>
</g>
</svg>
